{
  "accessors": [
    {
      "bufferView": 2,
      "componentType": 5126,
      "count": 417,
      "max": [85.34693908691406, 84.0503158569336, 128.20562744140625],
      "min": [-85.34693908691406, -86.10114288330078, -6.950638771057129],
      "type": "VEC3"
    },
    {
      "bufferView": 2,
      "byteOffset": 5004,
      "componentType": 5126,
      "count": 417,
      "max": [0.9985177516937256, 0.9967992305755615, 0.989237904548645],
      "min": [-0.9985177516937256, -0.9967992305755615, -1.0],
      "type": "VEC3"
    },
    {
      "bufferView": 1,
      "componentType": 5126,
      "count": 417,
      "max": [1.0, 1.0523256063461304],
      "min": [-0.09083220362663269, 0.0],
      "type": "VEC2"
    },
    {
      "bufferView": 0,
      "componentType": 5125,
      "count": 1320,
      "type": "SCALAR"
    },
    {
      "bufferView": 2,
      "byteOffset": 10008,
      "componentType": 5126,
      "count": 146,
      "max": [53.58340072631836, -65.66035461425781, 119.54625701904297],
      "min": [-53.58340072631836, -83.81912994384766, 90.0572738647461],
      "type": "VEC3"
    },
    {
      "bufferView": 2,
      "byteOffset": 11760,
      "componentType": 5126,
      "count": 146,
      "max": [0.9999948143959045, 0.429228276014328, 0.9844650626182556],
      "min": [-0.9999948143959045, -0.9924644827842712, -0.9844647645950317],
      "type": "VEC3"
    },
    {
      "bufferView": 3,
      "componentType": 5126,
      "count": 146,
      "max": [0.5913225412368774, 0.890046238899231, -0.0765959843993187, 1.0],
      "min": [-0.5913225412368774, -0.9036733508110046, -1.0, -1.0],
      "type": "VEC4"
    },
    {
      "bufferView": 1,
      "byteOffset": 3336,
      "componentType": 5126,
      "count": 146,
      "max": [0.6854913234710693, 0.6883527040481567],
      "min": [0.3145087659358978, 0.3116472363471985],
      "type": "VEC2"
    },
    {
      "bufferView": 0,
      "byteOffset": 5280,
      "componentType": 5125,
      "count": 756,
      "type": "SCALAR"
    },
    {
      "bufferView": 2,
      "byteOffset": 13512,
      "componentType": 5126,
      "count": 358,
      "max": [75.15117645263672, 111.01741027832031, 61.04825973510742],
      "min": [-75.15117645263672, -74.02059936523438, -24.796018600463867],
      "type": "VEC3"
    },
    {
      "bufferView": 2,
      "byteOffset": 17808,
      "componentType": 5126,
      "count": 358,
      "max": [1.0, 0.9841247200965881, 1.0],
      "min": [-1.0, -0.9999381303787231, -1.0],
      "type": "VEC3"
    },
    {
      "bufferView": 1,
      "byteOffset": 4504,
      "componentType": 5126,
      "count": 358,
      "max": [1.0277777910232544, 1.0],
      "min": [0.0, 0.0],
      "type": "VEC2"
    },
    {
      "bufferView": 0,
      "byteOffset": 8304,
      "componentType": 5125,
      "count": 1140,
      "type": "SCALAR"
    },
    {
      "bufferView": 2,
      "byteOffset": 22104,
      "componentType": 5126,
      "count": 12,
      "max": [56.66958999633789, -51.452728271484375, 29.26190185546875],
      "min": [-56.66963577270508, -76.51764678955078, 1.1199023723602295],
      "type": "VEC3"
    },
    {
      "bufferView": 2,
      "byteOffset": 22248,
      "componentType": 5126,
      "count": 12,
      "max": [0.657558262348175, -0.7350022196769714, 0.1041536033153534],
      "min": [-0.6700177788734436, -0.9842124581336975, 0.0058156149461865425],
      "type": "VEC3"
    },
    {
      "bufferView": 3,
      "byteOffset": 2336,
      "componentType": 5126,
      "count": 12,
      "max": [
        0.9842780232429504, 0.6598061919212341, 0.003053652122616768, 1.0
      ],
      "min": [
        0.7390187382698059, -0.6736848950386047, -0.004092225804924965, 1.0
      ],
      "type": "VEC4"
    },
    {
      "bufferView": 1,
      "byteOffset": 7368,
      "componentType": 5126,
      "count": 12,
      "max": [1.0013885498046875, 0.7329843044281006],
      "min": [-0.0013889074325561523, 0.2670156955718994],
      "type": "VEC2"
    },
    {
      "bufferView": 0,
      "byteOffset": 12864,
      "componentType": 5125,
      "count": 60,
      "type": "SCALAR"
    },
    {
      "bufferView": 2,
      "byteOffset": 22392,
      "componentType": 5126,
      "count": 732,
      "max": [56.66958999633789, -48.95568084716797, 29.26190185546875],
      "min": [-56.66963577270508, -76.51764678955078, 0.9984170794487],
      "type": "VEC3"
    },
    {
      "bufferView": 2,
      "byteOffset": 31176,
      "componentType": 5126,
      "count": 732,
      "max": [0.9964629411697388, 0.6403416991233826, 0.9988186955451965],
      "min": [-0.9964630007743835, -0.9921271800994873, -0.9988186955451965],
      "type": "VEC3"
    },
    {
      "bufferView": 1,
      "byteOffset": 7464,
      "componentType": 5126,
      "count": 732,
      "max": [1.0277777910232544, 1.0],
      "min": [0.007596135139465332, 0.0],
      "type": "VEC2"
    },
    {
      "bufferView": 0,
      "byteOffset": 13104,
      "componentType": 5125,
      "count": 3864,
      "type": "SCALAR"
    },
    {
      "bufferView": 2,
      "byteOffset": 39960,
      "componentType": 5126,
      "count": 1078,
      "max": [108.1826400756836, 117.51736450195313, 94.11907958984375],
      "min": [-103.32817077636719, -117.34269714355469, -22.432567596435547],
      "type": "VEC3"
    },
    {
      "bufferView": 2,
      "byteOffset": 52896,
      "componentType": 5126,
      "count": 1078,
      "max": [0.9985235333442688, 0.999887228012085, 0.9999694228172302],
      "min": [-0.9985235333442688, -0.9999727010726929, -0.9995008707046509],
      "type": "VEC3"
    },
    {
      "bufferView": 1,
      "byteOffset": 13320,
      "componentType": 5126,
      "count": 1078,
      "max": [1.0, 1.0],
      "min": [0.0, 0.0],
      "type": "VEC2"
    },
    {
      "bufferView": 0,
      "byteOffset": 28560,
      "componentType": 5125,
      "count": 4986,
      "type": "SCALAR"
    }
  ],
  "asset": {
    "extras": {
      "author": "Anthony Yanez (https://sketchfab.com/paulyanez)",
      "license": "CC-BY-4.0 (http://creativecommons.org/licenses/by/4.0/)",
      "source": "https://sketchfab.com/3d-models/rinnegan-naruto-f4ca72e28da24adc961842ad32f90eaa",
      "title": "Rinnegan (Naruto)"
    },
    "generator": "Sketchfab-12.66.0",
    "version": "2.0"
  },
  "bufferViews": [
    {
      "buffer": 0,
      "byteLength": 48504,
      "name": "floatBufferViews",
      "target": 34963
    },
    {
      "buffer": 0,
      "byteLength": 21944,
      "byteOffset": 48504,
      "byteStride": 8,
      "name": "floatBufferViews",
      "target": 34962
    },
    {
      "buffer": 0,
      "byteLength": 65832,
      "byteOffset": 70448,
      "byteStride": 12,
      "name": "floatBufferViews",
      "target": 34962
    },
    {
      "buffer": 0,
      "byteLength": 2528,
      "byteOffset": 136280,
      "byteStride": 16,
      "name": "floatBufferViews",
      "target": 34962
    }
  ],
  "buffers": [
    {
      "byteLength": 138808,
      "uri": "rinnegan.bin"
    }
  ],
  "images": [
    {
      "uri": "textures/07_-_Default_baseColor.jpeg"
    },
    {
      "uri": "textures/07_-_Default_normal.png"
    },
    {
      "uri": "textures/03_-_Default_baseColor.jpeg"
    },
    {
      "uri": "textures/01_-_Default_baseColor.jpeg"
    },
    {
      "uri": "textures/01_-_Default_normal.png"
    },
    {
      "uri": "textures/08_-_Default_baseColor.jpeg"
    }
  ],
  "materials": [
    {
      "doubleSided": true,
      "name": "02_-_Default",
      "pbrMetallicRoughness": {
        "baseColorFactor": [0.0, 0.0, 0.0, 1.0],
        "roughnessFactor": 0.8929713596
      }
    },
    {
      "doubleSided": true,
      "emissiveFactor": [1.0, 1.0, 1.0],
      "emissiveTexture": {
        "index": 0
      },
      "name": "07_-_Default",
      "normalTexture": {
        "index": 1
      },
      "pbrMetallicRoughness": {
        "baseColorTexture": {
          "index": 0
        },
        "roughnessFactor": 0.0
      }
    },
    {
      "doubleSided": true,
      "name": "03_-_Default",
      "pbrMetallicRoughness": {
        "baseColorTexture": {
          "index": 2
        },
        "roughnessFactor": 0.8929713596
      }
    },
    {
      "doubleSided": true,
      "name": "01_-_Default",
      "normalTexture": {
        "index": 4
      },
      "pbrMetallicRoughness": {
        "baseColorTexture": {
          "index": 3
        },
        "roughnessFactor": 0.30000000000000004
      }
    },
    {
      "doubleSided": true,
      "name": "08_-_Default",
      "pbrMetallicRoughness": {
        "baseColorTexture": {
          "index": 5
        },
        "roughnessFactor": 0.30000000000000004
      }
    },
    {
      "doubleSided": true,
      "name": "09_-_Default",
      "pbrMetallicRoughness": {
        "baseColorFactor": [0.14390974270768597, 0.06403988504583186, 0.0, 1.0],
        "roughnessFactor": 0.5287728658999999
      }
    }
  ],
  "meshes": [
    {
      "name": "Head_02 - Default_0",
      "primitives": [
        {
          "attributes": {
            "NORMAL": 1,
            "POSITION": 0,
            "TEXCOORD_0": 2
          },
          "indices": 3,
          "material": 0,
          "mode": 4
        }
      ]
    },
    {
      "name": "Head_07 - Default_0",
      "primitives": [
        {
          "attributes": {
            "NORMAL": 5,
            "POSITION": 4,
            "TANGENT": 6,
            "TEXCOORD_0": 7
          },
          "indices": 8,
          "material": 1,
          "mode": 4
        }
      ]
    },
    {
      "name": "Head Band_03 - Default_0",
      "primitives": [
        {
          "attributes": {
            "NORMAL": 10,
            "POSITION": 9,
            "TEXCOORD_0": 11
          },
          "indices": 12,
          "material": 2,
          "mode": 4
        }
      ]
    },
    {
      "name": "Head Band_01 - Default_0",
      "primitives": [
        {
          "attributes": {
            "NORMAL": 14,
            "POSITION": 13,
            "TANGENT": 15,
            "TEXCOORD_0": 16
          },
          "indices": 17,
          "material": 3,
          "mode": 4
        }
      ]
    },
    {
      "name": "Head Band_08 - Default_0",
      "primitives": [
        {
          "attributes": {
            "NORMAL": 19,
            "POSITION": 18,
            "TEXCOORD_0": 20
          },
          "indices": 21,
          "material": 4,
          "mode": 4
        }
      ]
    },
    {
      "name": "Hair_09 - Default_0",
      "primitives": [
        {
          "attributes": {
            "NORMAL": 23,
            "POSITION": 22,
            "TEXCOORD_0": 24
          },
          "indices": 25,
          "material": 5,
          "mode": 4
        }
      ]
    }
  ],
  "nodes": [
    {
      "children": [1],
      "matrix": [
        1.0, 0.0, 0.0, 0.0, 0.0, 2.220446049250313e-16, -1.0, 0.0, 0.0, 1.0,
        2.220446049250313e-16, 0.0, 0.0, 0.0, 0.0, 1.0
      ],
      "name": "Sketchfab_model"
    },
    {
      "children": [2],
      "matrix": [
        1.0, 0.0, 0.0, 0.0, 0.0, 0.0, 1.0, 0.0, 0.0, -1.0, 0.0, 0.0, 0.0, 0.0,
        0.0, 1.0
      ],
      "name": "Rinnegan.FBX"
    },
    {
      "children": [3, 6, 10, 13],
      "name": "RootNode"
    },
    {
      "children": [4, 5],
      "matrix": [
        1.0, 0.0, 0.0, 0.0, 0.0, 2.220446049250313e-16, -1.0, 0.0, 0.0, 1.0,
        2.220446049250313e-16, 0.0, -0.17141193151474, -1.586029052734375,
        -0.5142938494682312, 1.0
      ],
      "name": "Head"
    },
    {
      "mesh": 0,
      "name": "Head_02 - Default_0"
    },
    {
      "mesh": 1,
      "name": "Head_07 - Default_0"
    },
    {
      "children": [7, 8, 9],
      "matrix": [
        1.1268585920333862, 0.0, 0.0, 0.0, 0.0, 2.502128708744303e-16,
        -1.1268585920333862, 0.0, 0.0, 1.1268585920333862,
        2.502128708744303e-16, 0.0, -0.1016215831041336, 123.26654052734375,
        -0.4855659604072571, 1.0
      ],
      "name": "Head Band"
    },
    {
      "mesh": 2,
      "name": "Head Band_03 - Default_0"
    },
    {
      "mesh": 3,
      "name": "Head Band_01 - Default_0"
    },
    {
      "mesh": 4,
      "name": "Head Band_08 - Default_0"
    },
    {
      "children": [11],
      "matrix": [
        1.0, 0.0, 0.0, 0.0, 0.0, -1.6292068472090193e-7, 0.9999999999999868,
        0.0, 0.0, -0.9999999999999868, -1.6292068472090193e-7, 0.0,
        -0.5519395470619202, 104.42129516601563, 157.7256317138672, 1.0
      ],
      "name": "miAreaLightomni001"
    },
    {
      "children": [12],
      "matrix": [
        1.0, 0.0, 0.0, 0.0, 0.0, 2.220446049250313e-16, 1.0, 0.0, 0.0, -1.0,
        2.220446049250313e-16, 0.0, 0.0, 0.0, 0.0, 1.0
      ],
      "name": "Object_11"
    },
    {
      "name": "Object_12"
    },
    {
      "children": [14],
      "matrix": [
        1.0773999691009521, 0.0, 0.0, 0.0, 0.0, 2.3923085048526186e-16,
        -1.0773999691009521, 0.0, 0.0, 1.313679575920105, 2.916954624332624e-16,
        0.0, -0.17141419649124146, 126.34883117675781, -0.514286994934082, 1.0
      ],
      "name": "Hair"
    },
    {
      "mesh": 5,
      "name": "Hair_09 - Default_0"
    }
  ],
  "samplers": [
    {
      "magFilter": 9729,
      "minFilter": 9987,
      "wrapS": 10497,
      "wrapT": 10497
    }
  ],
  "scene": 0,
  "scenes": [
    {
      "name": "Sketchfab_Scene",
      "nodes": [0]
    }
  ],
  "textures": [
    {
      "sampler": 0,
      "source": 0
    },
    {
      "sampler": 0,
      "source": 1
    },
    {
      "sampler": 0,
      "source": 2
    },
    {
      "sampler": 0,
      "source": 3
    },
    {
      "sampler": 0,
      "source": 4
    },
    {
      "sampler": 0,
      "source": 5
    }
  ]
}
